<?xml version="1.0" standalone="no"?>
<!DOCTYPE svg PUBLIC "-//W3C//DTD SVG 20010904//EN"
 "http://www.w3.org/TR/2001/REC-SVG-20010904/DTD/svg10.dtd">
<svg version="1.0" xmlns="http://www.w3.org/2000/svg"
 width="329.000000pt" height="329.000000pt" viewBox="0 0 329.000000 329.000000"
 preserveAspectRatio="xMidYMid meet">

<g transform="translate(0.000000,329.000000) scale(0.100000,-0.100000)"
fill="#000000" stroke="none">
<path d="M2556 3265 c-34 -18 -135 -95 -216 -165 -36 -31 -96 -81 -135 -110
-90 -70 -249 -203 -350 -295 -44 -39 -97 -86 -117 -104 l-37 -32 -56 41 c-86
63 -202 132 -288 169 -93 40 -103 38 -211 -52 -155 -129 -226 -212 -226 -266
0 -34 42 -68 316 -258 89 -62 166 -119 173 -127 9 -11 10 -29 1 -78 -23 -131
-55 -212 -106 -275 -34 -42 -37 -43 -94 -43 -87 0 -91 -9 -82 -181 7 -122 11
-141 37 -193 46 -90 146 -177 280 -241 60 -30 136 -61 168 -70 62 -18 69 -25
35 -40 -20 -9 -23 -17 -21 -67 2 -72 -14 -80 -88 -43 -62 32 -104 28 -152 -15
-29 -25 -32 -35 -33 -87 l-2 -58 -49 -8 c-80 -14 -96 -26 -108 -82 -10 -48
-12 -50 -52 -59 -51 -11 -65 -2 -83 54 -16 50 -48 79 -91 86 -53 9 -73 -20
-77 -112 -5 -83 13 -148 49 -180 23 -21 91 -23 169 -5 54 12 409 -3 530 -23
146 -25 339 -78 692 -191 124 -40 143 -42 158 -15 6 11 19 24 30 30 17 9 24 4
55 -45 20 -30 50 -62 67 -71 45 -23 116 -14 144 19 21 25 21 28 8 99 -11 57
-20 79 -44 103 -32 31 -48 33 -195 22 -23 -2 -31 2 -33 18 -2 16 8 26 45 44
137 66 173 106 173 195 0 62 -14 87 -70 125 -66 45 -94 76 -88 99 7 24 -1 33
-89 111 -40 34 -70 67 -67 72 9 15 82 59 98 59 12 0 142 -138 283 -300 39 -46
82 -64 128 -57 47 8 217 110 278 166 46 43 77 87 77 110 0 5 -25 38 -55 73
-57 65 -145 189 -145 205 0 4 45 44 100 88 l100 80 0 106 0 107 -31 12 c-16 7
-64 39 -106 72 -44 33 -83 56 -92 54 -9 -3 -49 -15 -90 -27 -63 -18 -79 -20
-112 -10 -39 12 -83 62 -76 86 2 5 31 17 65 26 69 18 112 43 112 64 0 8 -16
29 -35 47 -85 77 -129 215 -105 329 29 139 116 265 213 309 67 31 147 22 147
-16 0 -18 -67 -101 -88 -109 -7 -3 -23 0 -34 6 -31 16 -44 -3 -23 -34 25 -39
16 -69 -22 -79 -38 -10 -38 -11 -19 -41 13 -19 13 -30 1 -82 -32 -131 -6 -265
50 -265 29 0 30 5 10 53 -34 82 -9 262 50 363 40 68 111 141 151 156 l34 12 0
126 c0 144 14 117 -115 226 -58 49 -415 303 -503 358 -66 41 -86 46 -116 31z
m-576 -544 c0 -19 38 -21 140 -6 58 8 109 10 113 6 13 -13 19 -84 9 -100 -5
-7 -62 -26 -127 -41 -64 -15 -121 -32 -126 -37 -5 -5 -12 -32 -16 -60 -5 -47
-8 -52 -36 -57 -48 -10 -87 -7 -88 7 0 6 0 53 1 102 l1 90 52 53 c48 48 77 65
77 43z m-425 -769 c33 -26 59 -52 58 -57 -1 -5 -25 -15 -54 -22 -63 -16 -75
-23 -59 -33 6 -4 46 -1 87 7 l76 14 81 -78 c45 -44 137 -130 206 -193 268
-245 522 -498 517 -513 -5 -17 -130 -76 -174 -83 -31 -4 -64 1 -125 19 -86 27
-425 91 -467 88 -13 0 -44 -12 -67 -26 l-43 -25 -62 20 c-55 19 -229 126 -229
141 0 3 23 11 52 18 53 12 98 43 98 68 0 17 -3 17 -58 -8 -97 -44 -150 -33
-190 39 -55 99 -36 215 43 265 85 54 140 143 199 325 15 45 33 82 40 82 7 0
39 -22 71 -48z m1174 -195 c8 -7 37 -48 66 -92 28 -44 59 -86 68 -94 23 -19
21 -29 -8 -43 -23 -10 -30 -6 -87 43 -114 97 -179 163 -176 178 2 8 19 20 38
26 36 12 69 6 99 -18z m-1217 -953 c26 -14 29 -19 24 -46 -3 -17 -6 -43 -6
-59 0 -61 -83 -55 -129 9 -26 38 -26 52 0 86 24 30 64 34 111 10z m216 -30
c20 -14 23 -23 20 -77 -3 -61 -3 -62 -34 -65 -42 -4 -99 20 -119 52 -45 68 61
140 133 90z m883 -100 c61 -37 89 -74 89 -119 0 -47 -17 -65 -61 -65 l-40 0 7
75 7 75 -31 6 c-35 7 -67 37 -57 53 10 17 24 13 86 -25z m-1619 -61 c24 -21
23 -50 -2 -63 -43 -23 -83 17 -60 60 13 24 37 26 62 3z m34 -114 c16 -18 28
-20 89 -17 69 3 70 3 73 -23 3 -24 -2 -27 -56 -43 -32 -9 -79 -16 -104 -16
-38 0 -50 5 -67 26 -30 38 -27 70 7 82 38 14 37 14 58 -9z m1699 -254 c15 -14
25 -36 25 -54 0 -27 -3 -29 -42 -34 -24 -3 -54 -8 -68 -12 -22 -6 -28 -2 -43
29 -14 30 -22 36 -47 36 -19 0 -30 5 -30 14 0 26 50 43 133 45 38 1 53 -4 72
-24z m28 -127 c8 -23 -13 -48 -39 -48 -30 0 -64 16 -64 31 0 24 95 39 103 17z"/>
<path d="M1544 1724 c-64 -68 -86 -236 -37 -286 25 -25 88 -29 127 -9 61 33
105 203 72 273 -32 68 -109 78 -162 22z m146 -88 c0 -28 -5 -69 -11 -91 -21
-79 -94 -124 -144 -91 -29 19 -35 52 -7 41 47 -20 80 2 112 78 17 39 21 62 16
100 -5 49 -5 49 14 32 15 -14 20 -31 20 -69z"/>
<path d="M1665 1397 c-44 -17 -71 -35 -64 -41 3 -3 19 1 36 9 17 8 51 19 77
24 26 5 50 11 53 15 11 11 -71 5 -102 -7z"/>
<path d="M1679 1339 c-21 -18 -21 -20 -4 -13 11 4 40 9 64 12 30 3 39 7 30 13
-24 15 -66 10 -90 -12z"/>
<path d="M3258 2280 c-22 -28 -25 -29 -61 -18 -20 6 -40 8 -43 5 -10 -10 14
-34 41 -41 26 -7 32 -29 16 -55 -8 -12 -14 -13 -36 -3 -34 16 -78 16 -73 0 3
-7 26 -19 51 -27 l47 -15 0 -49 c0 -71 18 -121 56 -158 l34 -33 0 212 c0 117
-2 212 -4 212 -3 0 -15 -13 -28 -30z"/>
</g>
</svg>
